<svg xmlns="http://www.w3.org/2000/svg" version="1.1" xmlns:xlink="http://www.w3.org/1999/xlink" xmlns:svgjs="http://svgjs.dev/svgjs" width="1500" height="1500" viewBox="0 0 1500 1500"><rect width="1500" height="1500" fill="#ffffff"></rect><g transform="matrix(0.6666666666666666,0,0,0.6666666666666666,250.6234784077289,333.2550458715597)"><svg viewBox="0 0 392 327" data-background-color="#2b2a28" preserveAspectRatio="xMidYMid meet" height="1251" width="1500" xmlns="http://www.w3.org/2000/svg" xmlns:xlink="http://www.w3.org/1999/xlink"><g id="tight-bounds" transform="matrix(1,0,0,1,-0.24047763126802124,-0.10000000000002274)"><svg viewBox="0 0 392.4848811670976 327.2" height="327.2" width="392.4848811670976"><g><svg viewBox="0 0 392.4848811670976 327.2" height="327.2" width="392.4848811670976"><g><svg viewBox="0 0 392.4848811670976 327.2" height="327.2" width="392.4848811670976"><g id="textblocktransform"><svg viewBox="0 0 392.4848811670976 327.2" height="327.2" width="392.4848811670976" id="textblock"><g><svg viewBox="0 0 392.4848811670976 327.2" height="327.2" width="392.4848811670976"><g transform="matrix(1,0,0,1,0,0)"><svg width="392.4848811670976" viewBox="24.69337 -8.314023676399186 36.99005000000002 30.837233676399187" height="327.2" data-palette-color="#ffffff"><path d="M24.693-2.434l4.26-0.077 11.199 16.572c0.212 0.316 0.435 0.652 0.668 1.008 0.24 0.349 0.476 0.682 0.708 0.998v0c-0.034-0.393-0.064-0.789-0.091-1.189-0.027-0.4-0.044-0.779-0.051-1.139v0l-0.295-16.467 2.599-0.047 0.451 25.136-2.02 0.036-13.067-19.248c-0.192-0.29-0.397-0.6-0.617-0.93-0.226-0.329-0.455-0.639-0.686-0.927v0c0.053 0.366 0.087 0.735 0.1 1.108 0.02 0.38 0.034 0.753 0.04 1.119v0l0.34 18.957-2.61 0.047-0.407-22.696zM55.707 16.171v0c-1.757 0.883-3.427 1.338-5.011 1.365-1.583 0.027-3.058-0.273-4.425-0.898-1.37-0.632-2.585-1.514-3.645-2.645-1.067-1.128-1.953-2.395-2.66-3.8v0c-0.769-1.531-1.288-3.12-1.557-4.769-0.26-1.645-0.241-3.248 0.057-4.808 0.307-1.557 0.951-2.992 1.932-4.306 0.975-1.311 2.321-2.397 4.036-3.259v0c0.715-0.359 1.542-0.667 2.481-0.922 0.933-0.252 1.875-0.397 2.825-0.435 0.948-0.044 1.813 0.096 2.595 0.419v0l-0.706 2.582c-0.919-0.359-1.963-0.469-3.131-0.329-1.174 0.143-2.19 0.429-3.048 0.861v0c-1.185 0.596-2.089 1.389-2.71 2.38-0.627 0.994-1.017 2.104-1.17 3.329-0.15 1.232-0.095 2.499 0.165 3.801 0.259 1.302 0.686 2.546 1.282 3.732v0c0.922 1.835 2.015 3.274 3.278 4.318 1.26 1.038 2.615 1.648 4.064 1.83 1.449 0.182 2.91-0.097 4.381-0.837v0c0.858-0.431 1.726-1.02 2.604-1.767 0.878-0.747 1.712-1.655 2.503-2.724v0l1.836 1.271c-0.38 0.728-0.908 1.452-1.583 2.172-0.672 0.726-1.394 1.391-2.165 1.995-0.771 0.604-1.514 1.085-2.228 1.444z" opacity="1" transform="matrix(1,0,0,1,0,0)" fill="#000000" class="wordmark-text-0" data-fill-palette-color="primary" id="text-0"></path></svg></g></svg></g></svg></g></svg></g><g></g></svg></g><defs></defs></svg><rect width="392.4848811670976" height="327.2" fill="none" stroke="none" visibility="hidden"></rect></g></svg></g></svg>